<svg version="1" xmlns="http://www.w3.org/2000/svg" width="400" height="400" viewBox="0 0 300.000000 300.000000"><path d="M137 4.6C116.9 7 99.1 12.3 82.9 20.7 43.3 41.2 14.9 79.5 6.4 124c-2.5 13.1-2.5 38.9 0 52C17.9 236 64 282.1 124 293.6c13.1 2.5 38.9 2.5 52 0C236 282.1 282.1 236 293.6 176c2.5-13.1 2.5-38.9 0-52C282.3 64.8 236.7 18.6 178.2 6.9c-9.3-1.8-33.7-3.2-41.2-2.3zm62.4 108.9c3.2.9 6.2 1.8 6.7 2 .6.4-.6 6-1.7 7.3-.1.2-2.4-.4-5.1-1.3-6.9-2.4-18-2.4-22 0-5.2 3.1-6.8 9.6-3.8 15.5 1.5 2.8 3.9 4.2 21 12 8.4 3.8 10.2 5.3 12.6 10.5 2.4 5.1 2.4 10.9 0 16-4.1 9.2-13.4 13.1-29 12.2-5.3-.3-11.1-1-12.8-1.7-3-1.1-3.3-1.6-3.3-5.2 0-3.7.2-4 2.3-3.4 8.4 2.5 16.8 3.7 21.5 3.2 10-1.2 14.2-4.9 14.2-12.7 0-6.4-3.4-9.6-14.2-13.9-18.6-7.3-24.2-14.1-22.3-26.7.8-5.7 7.2-12.5 13.1-14.1 5.9-1.5 16.3-1.4 22.8.3zm-66.8 3.5c12.9 6.6 18.1 17.4 17.2 35.7-.8 15.8-6.6 25.2-19.1 30.9-5.9 2.7-7 2.9-22.9 3.2l-16.8.4v-74.4l17.4.4 17.3.3 6.9 3.5z"/><path d="M100 150v30.3l10.3-.5c21.5-1.1 30.7-10.1 30.7-29.7 0-14.4-4.2-22.5-13.9-26.9-4.6-2.1-7.5-2.7-16.3-3l-10.8-.5V150z"/></svg>